nColumns=28
nRows=79
DataType=double
version=3
OpenSimVersion=4.1
endheader
time	ground_force_1_vx	ground_force_1_vy	ground_force_1_vz	ground_force_1_px	ground_force_1_py	ground_force_1_pz	ground_force_1_mx	ground_force_1_my	ground_force_1_mz	ground_force_2_vx	ground_force_2_vy	ground_force_2_vz	ground_force_2_px	ground_force_2_py	ground_force_2_pz	ground_force_2_mx	ground_force_2_my	ground_force_2_mz	ground_force_3_vx	ground_force_3_vy	ground_force_3_vz	ground_force_3_px	ground_force_3_py	ground_force_3_pz	ground_force_3_mx	ground_force_3_my	ground_force_3_mz
3.34	10.8392	410.94	-37.2519	-0.279259	0.006	-0.422448	0	-1.35651	0	-6.46147	183.24	26.2259	-0.120923	0.006	-0.784495	0	0.023695	0	0	0	0	0	0	0	0	0	0
3.35	11.3914	422.801	-36.9335	-0.279803	0.006	-0.422715	0	-1.29517	0	-6.82651	185.854	27.0586	-0.121198	0.006	-0.784876	0	0.0549376	0	0	0	0	0	0	0	0	0	0
3.36	12.9644	433.265	-35.8492	-0.281119	0.006	-0.423234	0	-1.23158	0	-7.2494	187.534	28.391	-0.121636	0.006	-0.785474	0	0.0227045	0	0	0	0	0	0	0	0	0	0
3.37	15.6447	441.339	-34.3498	-0.282812	0.006	-0.423853	0	-1.16314	0	-7.18208	187.418	29.6471	-0.122356	0.006	-0.785979	0	-0.0556746	0	0	0	0	0	0	0	0	0	0
3.38	18.8706	445.073	-32.5571	-0.284579	0.006	-0.424564	0	-1.08249	0	-6.45194	186.163	30.6083	-0.122744	0.006	-0.786207	0	-0.154652	0	0	0	0	0	0	0	0	0	0
3.39	21.5114	444.711	-30.808	-0.286232	0.006	-0.4251	0	-0.988873	0	-5.35609	184.717	31.2536	-0.123302	0.006	-0.786456	0	-0.189781	0	0	0	0	0	0	0	0	0	0
3.4	22.7849	441.821	-29.8804	-0.287573	0.006	-0.42535	0	-0.886953	0	-3.84201	182.874	31.2707	-0.123818	0.006	-0.786564	0	-0.18408	0	0	0	0	0	0	0	0	0	0
3.41	22.879	437.273	-29.9729	-0.288681	0.006	-0.425448	0	-0.822771	0	-2.07648	180.274	30.6785	-0.124475	0.006	-0.786464	0	-0.197137	0	0	0	0	0	0	0	0	0	0
3.42	22.2778	435.489	-30.6726	-0.289405	0.006	-0.425552	0	-0.806067	0	-1.1404	177.558	30.0157	-0.124649	0.006	-0.786398	0	-0.232186	0	0	0	0	0	0	0	0	0	0
3.43	21.3057	437.071	-30.9932	-0.289698	0.006	-0.425744	0	-0.811246	0	-1.51523	175.516	29.7919	-0.124634	0.006	-0.786413	0	-0.261704	0	0	0	0	0	0	0	0	0	0
3.44	20.4813	438.062	-30.8525	-0.289902	0.006	-0.425926	0	-0.831847	0	-2.37307	174.339	29.6831	-0.124841	0.006	-0.78637	0	-0.240819	0	0	0	0	0	0	0	0	0	0
3.45	20.2871	438.518	-30.9515	-0.290095	0.006	-0.425974	0	-0.870044	0	-2.79051	173.94	29.3765	-0.125146	0.006	-0.786466	0	-0.197831	0	0	0	0	0	0	0	0	0	0
3.46	19.7252	439.151	-31.2669	-0.290173	0.006	-0.425982	0	-0.885137	0	-2.95283	173.953	29.206	-0.125058	0.006	-0.786711	0	-0.227798	0	0	0	0	0	0	0	0	0	0
3.47	17.9728	438.5	-31.7682	-0.290275	0.006	-0.425974	0	-0.837895	0	-3.60903	174.535	29.5073	-0.12464	0.006	-0.78696	0	-0.307761	0	0	0	0	0	0	0	0	0	0
3.48	16.3322	436.5	-32.398	-0.290474	0.006	-0.425975	0	-0.785387	0	-5.0489	175.495	30.1906	-0.124412	0.006	-0.787357	0	-0.370496	0	0	0	0	0	0	0	0	0	0
3.49	15.9124	435.332	-32.5321	-0.290814	0.006	-0.426042	0	-0.772116	0	-6.81195	176.296	31.0962	-0.124411	0.006	-0.787951	0	-0.454347	0	0	0	0	0	0	0	0	0	0
3.5	16.2212	435.929	-32.1724	-0.291242	0.006	-0.426132	0	-0.785957	0	-8.12881	176.343	31.88	-0.124332	0.006	-0.788243	0	-0.54237	0	0	0	0	0	0	0	0	0	0
3.51	16.0787	437.903	-32.2982	-0.291357	0.006	-0.426165	0	-0.829552	0	-8.62444	175.733	32.3211	-0.124334	0.006	-0.78832	0	-0.599441	0	0	0	0	0	0	0	0	0	0
3.52	14.9635	440.826	-32.8459	-0.291082	0.006	-0.426073	0	-0.88298	0	-8.67555	175.591	32.6285	-0.124294	0.006	-0.788404	0	-0.680168	0	0	0	0	0	0	0	0	0	0
3.53	13.4828	444.473	-33.0747	-0.290666	0.006	-0.425878	0	-0.939631	0	-8.58761	176.539	32.9494	-0.124389	0.006	-0.788508	0	-0.766447	0	0	0	0	0	0	0	0	0	0
3.54	12.1437	447.325	-33.34	-0.290324	0.006	-0.425755	0	-0.994344	0	-8.34095	178.005	33.2191	-0.124549	0.006	-0.78869	0	-0.813982	0	0	0	0	0	0	0	0	0	0
3.55	11.7285	447.998	-33.908	-0.290232	0.006	-0.425755	0	-1.09441	0	-8.06976	179.293	33.1726	-0.124541	0.006	-0.788633	0	-0.808538	0	0	0	0	0	0	0	0	0	0
3.56	12.3104	446.973	-34.2862	-0.29031	0.006	-0.425823	0	-1.18856	0	-8.11818	180.479	32.8381	-0.124857	0.006	-0.788502	0	-0.7195	0	0	0	0	0	0	0	0	0	0
3.57	12.9012	444.368	-34.3577	-0.290489	0.006	-0.425903	0	-1.23612	0	-8.26149	181.49	32.2941	-0.12552	0.006	-0.788112	0	-0.603238	0	0	0	0	0	0	0	0	0	0
3.58	12.9334	442.068	-34.235	-0.290662	0.006	-0.42592	0	-1.2856	0	-8.29532	182.451	31.5438	-0.12622	0.006	-0.787699	0	-0.494492	0	0	0	0	0	0	0	0	0	0
3.59	12.7299	442.058	-33.8933	-0.290703	0.006	-0.425977	0	-1.32254	0	-8.34828	183.227	30.6989	-0.126768	0.006	-0.787636	0	-0.391364	0	0	0	0	0	0	0	0	0	0
3.6	12.549	443.526	-33.3897	-0.2906	0.006	-0.426073	0	-1.31693	0	-8.11049	183.731	30.0794	-0.127206	0.006	-0.787665	0	-0.29148	0	0	0	0	0	0	0	0	0	0
3.61	12.313	446.6	-33.0527	-0.290318	0.006	-0.425982	0	-1.33395	0	-7.89413	183.805	29.8134	-0.127548	0.006	-0.787541	0	-0.177458	0	0	0	0	0	0	0	0	0	0
3.62	12.0166	450.376	-32.9373	-0.289891	0.006	-0.425886	0	-1.42584	0	-8.12017	183.45	29.7304	-0.127914	0.006	-0.787385	0	-0.0881677	0	0	0	0	0	0	0	0	0	0
3.63	11.7528	452.625	-32.7374	-0.289435	0.006	-0.425958	0	-1.49059	0	-8.64934	183.024	29.9269	-0.128413	0.006	-0.787367	0	-0.0745615	0	0	0	0	0	0	0	0	0	0
3.64	11.3236	452.547	-32.5326	-0.288872	0.006	-0.425841	0	-1.53034	0	-8.75692	183.338	30.2342	-0.128918	0.006	-0.787542	0	-0.0845427	0	0	0	0	0	0	0	0	0	0
3.65	10.2948	449.951	-32.6176	-0.288243	0.006	-0.425453	0	-1.57352	0	-8.25531	184.572	30.6618	-0.129063	0.006	-0.787957	0	-0.0971927	0	0	0	0	0	0	0	0	0	0
3.66	8.91509	445.946	-32.946	-0.287856	0.006	-0.425201	0	-1.63609	0	-7.68082	185.745	31.4529	-0.129163	0.006	-0.788426	0	-0.155702	0	0	0	0	0	0	0	0	0	0
3.67	7.62983	443.442	-33.358	-0.287712	0.006	-0.425192	0	-1.70445	0	-7.39165	185.877	32.3464	-0.129367	0.006	-0.788821	0	-0.247094	0	0	0	0	0	0	0	0	0	0
3.68	6.35902	442.492	-34.0788	-0.287555	0.006	-0.425013	0	-1.73641	0	-7.09688	184.648	32.9829	-0.129456	0.006	-0.789071	0	-0.327978	0	0	0	0	0	0	0	0	0	0
3.69	5.81364	442.209	-34.813	-0.287551	0.006	-0.424732	0	-1.74999	0	-6.75798	182.395	33.1881	-0.129287	0.006	-0.789269	0	-0.384896	0	0	0	0	0	0	0	0	0	0
3.7	6.59131	444.313	-35.0438	-0.287554	0.006	-0.424625	0	-1.72737	0	-6.83611	179.774	33.0406	-0.129124	0.006	-0.789456	0	-0.419745	0	0	0	0	0	0	0	0	0	0
3.71	7.57816	448.762	-35.0383	-0.287345	0.006	-0.42449	0	-1.65634	0	-7.41308	177.473	32.6838	-0.128724	0.006	-0.789046	0	-0.440582	0	0	0	0	0	0	0	0	0	0
3.72	7.5011	452.247	-35.0491	-0.287095	0.006	-0.424303	0	-1.57756	0	-8.11771	175.985	32.0869	-0.128233	0.006	-0.788386	0	-0.418574	0	0	0	0	0	0	0	0	0	0
3.73	7.02365	453.183	-34.9969	-0.287023	0.006	-0.424307	0	-1.5165	0	-8.48398	175.41	31.3721	-0.127991	0.006	-0.788131	0	-0.384097	0	0	0	0	0	0	0	0	0	0
3.74	7.22718	453.848	-34.797	-0.287054	0.006	-0.424441	0	-1.46088	0	-8.50523	175.479	30.747	-0.127848	0.006	-0.788081	0	-0.324618	0	0	0	0	0	0	0	0	0	0
3.75	7.7082	454.55	-34.3474	-0.287027	0.006	-0.424591	0	-1.38281	0	-8.50004	175.818	30.441	-0.127969	0.006	-0.787922	0	-0.285134	0	0	0	0	0	0	0	0	0	0
3.76	7.61563	454.754	-33.7564	-0.286601	0.006	-0.424505	0	-1.31345	0	-8.29662	176.237	30.5078	-0.128213	0.006	-0.787714	0	-0.265927	0	0	0	0	0	0	0	0	0	0
3.77	6.49116	453.942	-33.3152	-0.285972	0.006	-0.424348	0	-1.26577	0	-7.76131	176.888	30.9664	-0.128585	0.006	-0.787778	0	-0.255191	0	0	0	0	0	0	0	0	0	0
3.78	5.23852	451.549	-32.8099	-0.285624	0.006	-0.424295	0	-1.23536	0	-7.0244	177.857	31.6379	-0.129006	0.006	-0.787925	0	-0.312492	0	0	0	0	0	0	0	0	0	0
3.79	4.86719	449.299	-32.1642	-0.285504	0.006	-0.424399	0	-1.21197	0	-6.38978	179.061	32.3568	-0.129427	0.006	-0.788014	0	-0.415276	0	0	0	0	0	0	0	0	0	0
3.8	4.74803	448.261	-31.7021	-0.285309	0.006	-0.424437	0	-1.19072	0	-5.82927	180.007	32.9565	-0.129837	0.006	-0.787671	0	-0.487904	0	0	0	0	0	0	0	0	0	0
3.81	3.92455	447.225	-31.6465	-0.284867	0.006	-0.424222	0	-1.1746	0	-5.043	181.011	33.2211	-0.130257	0.006	-0.787353	0	-0.535146	0	0	0	0	0	0	0	0	0	0
3.82	2.75711	446.374	-32.3161	-0.284206	0.006	-0.4238	0	-1.15079	0	-4.07214	182.434	33.2476	-0.130378	0.006	-0.787244	0	-0.569983	0	0	0	0	0	0	0	0	0	0
3.83	2.11993	445.369	-33.7496	-0.283775	0.006	-0.423341	0	-1.15061	0	-3.32328	184.475	33.214	-0.130719	0.006	-0.787284	0	-0.579062	0	0	0	0	0	0	0	0	0	0
3.84	2.73397	445.047	-35.257	-0.28373	0.006	-0.423004	0	-1.12943	0	-2.86547	186.43	32.9227	-0.131181	0.006	-0.787294	0	-0.535735	0	0	0	0	0	0	0	0	0	0
3.85	4.15301	446.854	-36.1372	-0.284037	0.006	-0.42283	0	-1.06894	0	-2.79683	187.55	32.3425	-0.131143	0.006	-0.787136	0	-0.437303	0	0	0	0	0	0	0	0	0	0
3.86	6.03612	449.919	-36.0325	-0.284548	0.006	-0.422907	0	-1.01564	0	-3.19162	187.904	31.807	-0.130816	0.006	-0.786808	0	-0.322772	0	0	0	0	0	0	0	0	0	0
3.87	7.80562	453.242	-35.3204	-0.284967	0.006	-0.423098	0	-0.940697	0	-3.81697	187.539	31.4579	-0.130594	0.006	-0.786318	0	-0.225634	0	0	0	0	0	0	0	0	0	0
3.88	8.80081	456.307	-34.512	-0.285231	0.006	-0.423235	0	-0.848655	0	-4.64215	186.841	31.4647	-0.13046	0.006	-0.785941	0	-0.218088	0	0	0	0	0	0	0	0	0	0
3.89	9.36272	459.341	-33.7848	-0.285403	0.006	-0.423398	0	-0.825777	0	-5.30571	186.262	31.9833	-0.130297	0.006	-0.786268	0	-0.285274	0	0	0	0	0	0	0	0	0	0
3.9	9.5386	462.188	-33.1301	-0.285554	0.006	-0.423574	0	-0.867465	0	-5.41472	185.993	32.9397	-0.130116	0.006	-0.786871	0	-0.374715	0	0	0	0	0	0	0	0	0	0
3.91	9.3067	464.892	-32.6594	-0.285587	0.006	-0.423563	0	-0.950526	0	-5.16334	186.145	33.9566	-0.130247	0.006	-0.78748	0	-0.480955	0	0	0	0	0	0	0	0	0	0
3.92	9.20134	468.745	-32.7171	-0.28554	0.006	-0.423355	0	-1.05154	0	-4.73372	186.895	34.8007	-0.130931	0.006	-0.787735	0	-0.560302	0	0	0	0	0	0	0	0	0	0
3.93	9.62803	473.144	-33.3466	-0.285691	0.006	-0.423218	0	-1.14311	0	-4.2418	188.237	35.483	-0.131745	0.006	-0.788015	0	-0.602348	0	0	0	0	0	0	0	0	0	0
3.94	10.4044	476.505	-34.206	-0.286	0.006	-0.423151	0	-1.19592	0	-3.77652	189.831	35.913	-0.132188	0.006	-0.788376	0	-0.627819	0	0	0	0	0	0	0	0	0	0
3.95	11.3763	479.347	-34.9923	-0.286246	0.006	-0.423011	0	-1.22793	0	-3.2412	191.197	35.9131	-0.132498	0.006	-0.788463	0	-0.585595	0	0	0	0	0	0	0	0	0	0
3.96	12.3776	481.723	-35.5808	-0.286455	0.006	-0.422867	0	-1.26197	0	-2.6789	192.28	35.5214	-0.13306	0.006	-0.788289	0	-0.503493	0	0	0	0	0	0	0	0	0	0
3.97	13.0665	483.575	-35.8896	-0.28664	0.006	-0.422744	0	-1.29263	0	-2.11783	193.14	34.9489	-0.133691	0.006	-0.788221	0	-0.392219	0	0	0	0	0	0	0	0	0	0
3.98	13.6929	485.261	-35.9577	-0.28684	0.006	-0.422601	0	-1.3082	0	-1.7824	193.585	34.416	-0.133954	0.006	-0.787947	0	-0.324313	0	0	0	0	0	0	0	0	0	0
3.99	14.2677	487.1	-36.1301	-0.286978	0.006	-0.422562	0	-1.33954	0	-1.86027	193.396	33.7991	-0.134141	0.006	-0.787549	0	-0.299118	0	0	0	0	0	0	0	0	0	0
4	14.2016	488.819	-36.3872	-0.287042	0.006	-0.422521	0	-1.37353	0	-2.2298	192.378	33.2357	-0.134071	0.006	-0.787298	0	-0.30163	0	0	0	0	0	0	0	0	0	0
4.01	13.8886	490.086	-36.7037	-0.287198	0.006	-0.422548	0	-1.39081	0	-2.60953	190.897	32.8741	-0.133346	0.006	-0.787152	0	-0.321984	0	0	0	0	0	0	0	0	0	0
4.02	14.15	491.063	-37.2085	-0.28744	0.006	-0.42254	0	-1.4121	0	-2.87155	189.198	32.5252	-0.132749	0.006	-0.787104	0	-0.336618	0	0	0	0	0	0	0	0	0	0
4.03	15.3013	493.035	-37.8605	-0.287565	0.006	-0.422395	0	-1.44276	0	-2.9093	187.56	32.1105	-0.132555	0.006	-0.78695	0	-0.344422	0	0	0	0	0	0	0	0	0	0
4.04	16.5801	496.113	-38.6712	-0.287526	0.006	-0.422135	0	-1.47942	0	-2.75835	186.518	31.8155	-0.132628	0.006	-0.786598	0	-0.370838	0	0	0	0	0	0	0	0	0	0
4.05	17.1946	499.091	-39.4238	-0.287519	0.006	-0.421971	0	-1.52299	0	-2.58155	186.629	31.7217	-0.132759	0.006	-0.786619	0	-0.353842	0	0	0	0	0	0	0	0	0	0
4.06	17.5586	501.547	-39.741	-0.287559	0.006	-0.421903	0	-1.5418	0	-2.50546	187.95	31.7876	-0.132665	0.006	-0.786981	0	-0.277903	0	0	0	0	0	0	0	0	0	0
4.07	17.8933	503.37	-39.7426	-0.287606	0.006	-0.421902	0	-1.52516	0	-2.30847	190.104	31.9338	-0.132972	0.006	-0.78738	0	-0.177429	0	0	0	0	0	0	0	0	0	0
4.08	18.4308	504.812	-39.703	-0.287787	0.006	-0.421994	0	-1.50125	0	-1.81401	192.798	32.0573	-0.133495	0.006	-0.787562	0	-0.044409	0	0	0	0	0	0	0	0	0	0
4.09	19.4817	506.616	-40.0196	-0.287943	0.006	-0.422088	0	-1.51591	0	-1.27341	196.058	32.0761	-0.133907	0.006	-0.78774	0	0.08174	0	0	0	0	0	0	0	0	0	0
4.1	20.8102	508.973	-40.5874	-0.288082	0.006	-0.422145	0	-1.499	0	-1.15775	198.832	32.1654	-0.134006	0.006	-0.788056	0	0.182138	0	0	0	0	0	0	0	0	0	0
4.11	22.5211	511.795	-41.0087	-0.288249	0.006	-0.422199	0	-1.44323	0	-1.54657	200.263	32.3498	-0.133615	0.006	-0.788354	0	0.227023	0	0	0	0	0	0	0	0	0	0
4.12	24.0674	514.9	-41.1857	-0.288256	0.006	-0.422165	0	-1.42187	0	-2.55145	200.381	32.5177	-0.133021	0.006	-0.788718	0	0.223367	0	0	0	0	0	0	0	0	0	0
